<svg width="407" height="109" viewBox="0 0 407 109" fill="none" xmlns="http://www.w3.org/2000/svg">
<path d="M137.9 51.24C137.9 49.92 137.96 48.72 138.08 47.64L137.96 47.46C136.84 47.62 135.62 47.74 134.3 47.82C132.98 47.86 131.76 47.86 130.64 47.82V40.02L146.3 39.96V60.36C144.46 61.2 142.36 61.86 140 62.34C137.68 62.78 134.72 63 131.12 63C126.32 63 122.56 62.36 119.84 61.08C117.12 59.76 115.2 57.66 114.08 54.78C112.96 51.86 112.4 47.98 112.4 43.14C112.4 39.22 112.84 36 113.72 33.48C114.64 30.96 115.96 29.02 117.68 27.66C119.44 26.26 121.58 25.3 124.1 24.78C126.62 24.22 129.5 23.94 132.74 23.94C134.66 23.94 136.58 24.02 138.5 24.18C140.46 24.34 142.4 24.64 144.32 25.08V33L144.14 33.12C142.46 32.72 140.78 32.44 139.1 32.28C137.46 32.12 135.8 32.04 134.12 32.04C131.68 32.04 129.54 32.3 127.7 32.82C125.9 33.3 124.5 34.32 123.5 35.88C122.5 37.44 122 39.86 122 43.14C122 46.38 122.26 48.86 122.78 50.58C123.34 52.26 124.36 53.42 125.84 54.06C127.36 54.66 129.52 54.96 132.32 54.96C132.68 54.96 133.24 54.96 134 54.96C134.76 54.92 135.52 54.88 136.28 54.84C137.04 54.8 137.58 54.74 137.9 54.66V51.24ZM178.656 61.5C177.536 61.9 175.976 62.26 173.976 62.58C172.016 62.86 169.676 63 166.956 63C163.516 63 160.576 62.56 158.136 61.68C155.736 60.76 153.916 59.22 152.676 57.06C151.436 54.86 150.816 51.82 150.816 47.94C150.816 42.66 152.016 38.84 154.416 36.48C156.856 34.12 160.616 32.94 165.696 32.94C169.336 32.94 172.196 33.46 174.276 34.5C176.396 35.54 177.896 37.02 178.776 38.94C179.696 40.82 180.156 43.06 180.156 45.66C180.156 46.42 180.116 47.24 180.036 48.12C179.996 49 179.896 49.86 179.736 50.7L179.496 50.94H159.756C160.036 52.7 160.856 53.86 162.216 54.42C163.616 54.98 165.876 55.26 168.996 55.26C171.076 55.26 172.796 55.22 174.156 55.14C175.556 55.02 176.976 54.86 178.416 54.66L178.656 54.84V61.5ZM171.816 44.64C171.816 43.68 171.656 42.86 171.336 42.18C171.056 41.46 170.476 40.92 169.596 40.56C168.716 40.16 167.416 39.96 165.696 39.96C163.176 39.96 161.516 40.4 160.716 41.28C159.956 42.12 159.576 43.24 159.576 44.64H171.816ZM183.94 54.18C187.06 55.06 190.52 55.5 194.32 55.5C196.16 55.5 197.54 55.44 198.46 55.32C199.38 55.2 200 55 200.32 54.72C200.64 54.44 200.8 54.06 200.8 53.58C200.8 52.9 200.54 52.48 200.02 52.32C199.54 52.16 198.56 51.94 197.08 51.66L192.34 50.76C189.3 50.16 187.1 49.22 185.74 47.94C184.42 46.62 183.76 44.66 183.76 42.06C183.76 38.54 184.8 36.14 186.88 34.86C189 33.58 192.36 32.94 196.96 32.94C199.72 32.94 202.14 33.1 204.22 33.42C206.34 33.7 208.1 34.06 209.5 34.5L209.38 41.76L209.2 41.94C205.96 40.9 202.42 40.38 198.58 40.38C196.7 40.38 195.38 40.52 194.62 40.8C193.9 41.04 193.54 41.54 193.54 42.3C193.54 42.7 193.64 43.02 193.84 43.26C194.08 43.5 194.6 43.74 195.4 43.98C196.2 44.18 197.46 44.44 199.18 44.76L203.56 45.6C206 46.12 207.8 46.98 208.96 48.18C210.12 49.38 210.7 51.28 210.7 53.88C210.7 56.16 210.28 57.98 209.44 59.34C208.6 60.66 207.18 61.6 205.18 62.16C203.22 62.72 200.5 63 197.02 63C194.38 63 191.94 62.88 189.7 62.64C187.5 62.36 185.52 62.04 183.76 61.68V54.3L183.94 54.18ZM216.388 53.7V41.1H212.788V33.3H217.288L219.088 26.16H225.988V33.3H232.528V41.1H225.988V51.6C225.988 52.72 226.128 53.5 226.408 53.94C226.688 54.34 227.328 54.54 228.328 54.54C228.968 54.54 229.648 54.52 230.368 54.48C231.088 54.4 231.808 54.32 232.528 54.24L232.708 54.36V62.16C230.788 62.72 228.248 63 225.088 63C221.928 63 219.688 62.28 218.368 60.84C217.048 59.4 216.388 57.02 216.388 53.7ZM249.212 32.94C253.052 32.94 256.152 33.34 258.512 34.14C260.872 34.94 262.592 36.42 263.672 38.58C264.792 40.7 265.352 43.78 265.352 47.82V62.46H256.652L256.352 59.7H256.172C255.412 60.7 254.232 61.5 252.632 62.1C251.032 62.7 248.952 63 246.392 63C239.472 63 236.012 59.76 236.012 53.28C236.012 50.52 236.912 48.36 238.712 46.8C240.552 45.2 243.432 44.4 247.352 44.4H256.232C255.952 42.72 255.232 41.6 254.072 41.04C252.912 40.44 250.932 40.14 248.132 40.14C246.372 40.14 244.632 40.28 242.912 40.56C241.232 40.8 239.752 41.08 238.472 41.4L238.292 41.28L238.352 34.32C239.152 34.08 240.172 33.86 241.412 33.66C242.652 33.42 243.952 33.24 245.312 33.12C246.712 33 248.012 32.94 249.212 32.94ZM248.852 55.92C251.332 55.92 253.192 55.62 254.432 55.02C255.672 54.38 256.312 53.38 256.352 52.02V50.52H249.572C247.812 50.52 246.572 50.78 245.852 51.3C245.172 51.78 244.832 52.44 244.832 53.28C244.832 54.28 245.192 54.98 245.912 55.38C246.632 55.74 247.612 55.92 248.852 55.92ZM256.352 30.42C255.392 30.42 254.292 30.18 253.052 29.7C251.852 29.22 250.672 28.76 249.512 28.32C248.392 27.84 247.392 27.6 246.512 27.6C245.432 27.6 244.892 28.14 244.892 29.22C244.892 29.3 244.892 29.4 244.892 29.52C244.932 29.64 244.952 29.76 244.952 29.88H239.852C239.852 29.88 239.812 29.58 239.732 28.98C239.692 28.34 239.672 27.76 239.672 27.24C239.672 25.48 240.152 24.2 241.112 23.4C242.112 22.6 243.412 22.2 245.012 22.2C246.012 22.2 247.112 22.44 248.312 22.92C249.512 23.36 250.692 23.82 251.852 24.3C253.012 24.78 254.032 25.02 254.912 25.02C255.352 25.02 255.712 24.9 255.992 24.66C256.312 24.42 256.472 24 256.472 23.4C256.472 23.32 256.472 23.22 256.472 23.1C256.472 22.98 256.452 22.86 256.412 22.74H261.572C261.572 22.74 261.592 23.04 261.632 23.64C261.712 24.24 261.752 24.82 261.752 25.38C261.752 27.14 261.252 28.42 260.252 29.22C259.292 30.02 257.992 30.42 256.352 30.42ZM269.527 48.06C269.527 42.7 270.667 38.84 272.947 36.48C275.227 34.12 279.087 32.94 284.527 32.94C288.167 32.94 291.087 33.46 293.287 34.5C295.487 35.54 297.067 37.18 298.027 39.42C299.027 41.62 299.527 44.5 299.527 48.06C299.527 51.58 299.027 54.44 298.027 56.64C297.067 58.84 295.487 60.46 293.287 61.5C291.087 62.5 288.167 63 284.527 63C279.087 63 275.227 61.84 272.947 59.52C270.667 57.16 269.527 53.34 269.527 48.06ZM284.527 54.78C286.847 54.78 288.407 54.28 289.207 53.28C290.047 52.24 290.467 50.44 290.467 47.88C290.467 45.44 290.047 43.7 289.207 42.66C288.407 41.58 286.847 41.04 284.527 41.04C282.287 41.04 280.727 41.58 279.847 42.66C279.007 43.7 278.587 45.44 278.587 47.88C278.587 50.44 279.007 52.24 279.847 53.28C280.727 54.28 282.287 54.78 284.527 54.78ZM305.216 26.7C306.976 26.14 308.796 25.76 310.676 25.56C312.596 25.32 314.656 25.2 316.856 25.2C320.296 25.2 323.016 25.54 325.016 26.22C327.016 26.86 328.436 27.86 329.276 29.22C330.156 30.58 330.596 32.3 330.596 34.38C330.596 36.82 330.016 38.88 328.856 40.56C327.696 42.2 325.696 43.2 322.856 43.56V43.86C325.816 44.02 327.916 44.84 329.156 46.32C330.436 47.8 331.076 49.62 331.076 51.78C331.076 55.38 329.876 58.1 327.476 59.94C325.116 61.74 321.316 62.7 316.076 62.82C313.396 62.86 311.036 62.72 308.996 62.4C306.956 62.08 305.096 61.64 303.416 61.08V53.58H303.776C305.376 54.1 306.996 54.48 308.636 54.72C310.276 54.96 312.136 55.08 314.216 55.08C317.016 55.08 319.036 54.78 320.276 54.18C321.516 53.58 322.136 52.54 322.136 51.06C322.136 49.7 321.656 48.78 320.696 48.3C319.776 47.78 318.056 47.52 315.536 47.52H310.736V39.78H314.756C317.636 39.78 319.576 39.54 320.576 39.06C321.616 38.54 322.136 37.62 322.136 36.3C322.136 34.94 321.556 34.04 320.396 33.6C319.276 33.16 317.296 32.94 314.456 32.94C312.896 32.94 311.316 33.06 309.716 33.3C308.156 33.54 306.736 33.86 305.456 34.26L305.216 34.2V26.7ZM361.571 35.1C360.451 34.54 359.091 34.1 357.491 33.78C355.931 33.46 354.331 33.3 352.691 33.3C349.651 33.3 347.491 33.88 346.211 35.04C344.931 36.2 344.171 38.2 343.931 41.04H343.991C344.831 40.64 345.951 40.32 347.351 40.08C348.751 39.84 350.331 39.72 352.091 39.72C355.971 39.72 358.931 40.64 360.971 42.48C363.011 44.32 364.031 47.08 364.031 50.76C364.031 53.4 363.611 55.64 362.771 57.48C361.931 59.28 360.491 60.66 358.451 61.62C356.451 62.54 353.651 63 350.051 63C346.131 63 343.071 62.32 340.871 60.96C338.711 59.6 337.191 57.54 336.311 54.78C335.431 52.02 334.991 48.54 334.991 44.34C334.991 39.94 335.631 36.36 336.911 33.6C338.231 30.8 340.051 28.76 342.371 27.48C344.691 26.16 347.411 25.5 350.531 25.5C353.171 25.5 355.411 25.72 357.251 26.16C359.091 26.6 360.611 27.08 361.811 27.6V34.98L361.571 35.1ZM350.051 55.68C352.251 55.68 353.731 55.32 354.491 54.6C355.251 53.88 355.631 52.7 355.631 51.06C355.631 49.3 355.191 48.1 354.311 47.46C353.431 46.78 351.991 46.44 349.991 46.44C348.751 46.44 347.571 46.58 346.451 46.86C345.331 47.14 344.471 47.5 343.871 47.94C343.831 50.98 344.271 53.04 345.191 54.12C346.151 55.16 347.771 55.68 350.051 55.68ZM399.367 44.16C399.367 48.72 398.847 52.38 397.807 55.14C396.767 57.9 395.087 59.9 392.767 61.14C390.447 62.38 387.347 63 383.467 63C379.627 63 376.547 62.38 374.227 61.14C371.907 59.9 370.227 57.9 369.187 55.14C368.147 52.38 367.627 48.72 367.627 44.16C367.627 39.56 368.147 35.88 369.187 33.12C370.227 30.36 371.907 28.36 374.227 27.12C376.547 25.88 379.627 25.26 383.467 25.26C387.347 25.26 390.447 25.88 392.767 27.12C395.087 28.36 396.767 30.36 397.807 33.12C398.847 35.88 399.367 39.56 399.367 44.16ZM383.467 55.02C386.187 55.02 387.967 54.14 388.807 52.38C389.687 50.58 390.127 47.84 390.127 44.16C390.127 40.44 389.687 37.7 388.807 35.94C387.967 34.18 386.187 33.3 383.467 33.3C380.787 33.3 379.007 34.18 378.127 35.94C377.287 37.7 376.867 40.44 376.867 44.16C376.867 47.84 377.287 50.58 378.127 52.38C379.007 54.14 380.787 55.02 383.467 55.02Z" fill="white"/>
<path d="M388.75 30.9C388.75 29.0667 389.142 27.75 389.925 26.95C390.708 26.1333 392.025 25.725 393.875 25.725C395.742 25.725 397.058 26.1333 397.825 26.95C398.608 27.75 399 29.0667 399 30.9C399 32.7 398.608 34 397.825 34.8C397.058 35.6 395.742 36 393.875 36C392.025 36 390.708 35.6 389.925 34.8C389.142 34 388.75 32.7 388.75 30.9ZM393.875 33.2C394.658 33.2 395.192 33.025 395.475 32.675C395.758 32.325 395.9 31.7083 395.9 30.825C395.9 29.9917 395.758 29.4 395.475 29.05C395.192 28.6833 394.658 28.5 393.875 28.5C393.108 28.5 392.575 28.6833 392.275 29.05C391.992 29.4 391.85 29.9917 391.85 30.825C391.85 31.7083 391.992 32.325 392.275 32.675C392.575 33.025 393.108 33.2 393.875 33.2Z" fill="white"/>
<path d="M113.42 104.838V95.874H110.18V93.444H119.54V95.874H116.3V104.838H113.42ZM123.681 104.838H120.801V96.072H123.141L123.375 97.872H123.429C123.537 97.2 123.795 96.72 124.203 96.432C124.611 96.132 125.217 95.982 126.021 95.982C126.345 95.982 126.639 96 126.903 96.036C127.167 96.06 127.389 96.084 127.569 96.108V98.916L127.533 98.952C127.341 98.904 127.119 98.862 126.867 98.826C126.627 98.79 126.351 98.772 126.039 98.772C125.595 98.772 125.193 98.844 124.833 98.988C124.485 99.132 124.209 99.414 124.005 99.834C123.813 100.242 123.717 100.854 123.717 101.67L123.681 104.838ZM132.164 95.982C133.316 95.982 134.246 96.102 134.954 96.342C135.662 96.582 136.178 97.026 136.502 97.674C136.838 98.31 137.006 99.234 137.006 100.446V104.838H134.396L134.306 104.01H134.252C134.024 104.31 133.67 104.55 133.19 104.73C132.71 104.91 132.086 105 131.318 105C129.242 105 128.204 104.028 128.204 102.084C128.204 101.256 128.474 100.608 129.014 100.14C129.566 99.66 130.43 99.42 131.606 99.42H134.27C134.186 98.916 133.97 98.58 133.622 98.412C133.274 98.232 132.68 98.142 131.84 98.142C131.312 98.142 130.79 98.184 130.274 98.268C129.77 98.34 129.326 98.424 128.942 98.52L128.888 98.484L128.906 96.396C129.146 96.324 129.452 96.258 129.824 96.198C130.196 96.126 130.586 96.072 130.994 96.036C131.414 96 131.804 95.982 132.164 95.982ZM132.056 102.876C132.8 102.876 133.358 102.786 133.73 102.606C134.102 102.414 134.294 102.114 134.306 101.706V101.256H132.272C131.744 101.256 131.372 101.334 131.156 101.49C130.952 101.634 130.85 101.832 130.85 102.084C130.85 102.384 130.958 102.594 131.174 102.714C131.39 102.822 131.684 102.876 132.056 102.876ZM141.769 104.838H138.889V96.072H141.625L141.769 97.674H141.823C141.991 97.134 142.291 96.72 142.723 96.432C143.155 96.132 143.755 95.982 144.523 95.982C145.567 95.982 146.335 96.276 146.827 96.864C147.331 97.452 147.583 98.472 147.583 99.924V104.838H144.703L144.685 100.482C144.685 99.81 144.583 99.33 144.379 99.042C144.175 98.754 143.791 98.61 143.227 98.61C142.699 98.61 142.327 98.742 142.111 99.006C141.895 99.258 141.781 99.696 141.769 100.32V104.838ZM149.163 102.354C150.099 102.618 151.137 102.75 152.277 102.75C152.829 102.75 153.243 102.732 153.519 102.696C153.795 102.66 153.981 102.6 154.077 102.516C154.173 102.432 154.221 102.318 154.221 102.174C154.221 101.97 154.143 101.844 153.987 101.796C153.843 101.748 153.549 101.682 153.105 101.598L151.683 101.328C150.771 101.148 150.111 100.866 149.703 100.482C149.307 100.086 149.109 99.498 149.109 98.718C149.109 97.662 149.421 96.942 150.045 96.558C150.681 96.174 151.689 95.982 153.069 95.982C153.897 95.982 154.623 96.03 155.247 96.126C155.883 96.21 156.411 96.318 156.831 96.45L156.795 98.628L156.741 98.682C155.769 98.37 154.707 98.214 153.555 98.214C152.991 98.214 152.595 98.256 152.367 98.34C152.151 98.412 152.043 98.562 152.043 98.79C152.043 98.91 152.073 99.006 152.133 99.078C152.205 99.15 152.361 99.222 152.601 99.294C152.841 99.354 153.219 99.432 153.735 99.528L155.049 99.78C155.781 99.936 156.321 100.194 156.669 100.554C157.017 100.914 157.191 101.484 157.191 102.264C157.191 102.948 157.065 103.494 156.813 103.902C156.561 104.298 156.135 104.58 155.535 104.748C154.947 104.916 154.131 105 153.087 105C152.295 105 151.563 104.964 150.891 104.892C150.231 104.808 149.637 104.712 149.109 104.604V102.39L149.163 102.354ZM157.997 98.412V96.072H159.275V95.622C159.275 94.434 159.551 93.582 160.103 93.066C160.655 92.538 161.477 92.274 162.569 92.274C162.953 92.274 163.307 92.31 163.631 92.382C163.955 92.442 164.237 92.514 164.477 92.598V94.614L164.423 94.65C164.207 94.626 163.991 94.608 163.775 94.596C163.559 94.572 163.355 94.56 163.163 94.56C162.755 94.56 162.467 94.638 162.299 94.794C162.143 94.938 162.065 95.166 162.065 95.478V96.072H164.477V98.412H162.065V104.838H159.275V98.412H157.997ZM165.294 100.518C165.294 98.91 165.636 97.752 166.32 97.044C167.004 96.336 168.162 95.982 169.794 95.982C170.886 95.982 171.762 96.138 172.422 96.45C173.082 96.762 173.556 97.254 173.844 97.926C174.144 98.586 174.294 99.45 174.294 100.518C174.294 101.574 174.144 102.432 173.844 103.092C173.556 103.752 173.082 104.238 172.422 104.55C171.762 104.85 170.886 105 169.794 105C168.162 105 167.004 104.652 166.32 103.956C165.636 103.248 165.294 102.102 165.294 100.518ZM169.794 102.534C170.49 102.534 170.958 102.384 171.198 102.084C171.45 101.772 171.576 101.232 171.576 100.464C171.576 99.732 171.45 99.21 171.198 98.898C170.958 98.574 170.49 98.412 169.794 98.412C169.122 98.412 168.654 98.574 168.39 98.898C168.138 99.21 168.012 99.732 168.012 100.464C168.012 101.232 168.138 101.772 168.39 102.084C168.654 102.384 169.122 102.534 169.794 102.534ZM178.7 104.838H175.82V96.072H178.16L178.394 97.872H178.448C178.556 97.2 178.814 96.72 179.222 96.432C179.63 96.132 180.236 95.982 181.04 95.982C181.364 95.982 181.658 96 181.922 96.036C182.186 96.06 182.408 96.084 182.588 96.108V98.916L182.552 98.952C182.36 98.904 182.138 98.862 181.886 98.826C181.646 98.79 181.37 98.772 181.058 98.772C180.614 98.772 180.212 98.844 179.852 98.988C179.504 99.132 179.228 99.414 179.024 99.834C178.832 100.242 178.736 100.854 178.736 101.67L178.7 104.838ZM194.743 95.982C195.631 95.982 196.333 96.276 196.849 96.864C197.377 97.452 197.641 98.472 197.641 99.924V104.838H194.761L194.743 100.284C194.743 99.696 194.653 99.27 194.473 99.006C194.305 98.742 193.969 98.61 193.465 98.61C192.961 98.61 192.619 98.742 192.439 99.006C192.271 99.27 192.187 99.696 192.187 100.284V104.838H189.307L189.289 100.284C189.289 99.696 189.199 99.27 189.019 99.006C188.851 98.742 188.515 98.61 188.011 98.61C187.507 98.61 187.165 98.742 186.985 99.006C186.817 99.27 186.733 99.696 186.733 100.284V104.838H183.853V96.072H186.589L186.733 97.674H186.787C186.943 97.146 187.213 96.732 187.597 96.432C187.993 96.132 188.551 95.982 189.271 95.982C189.991 95.982 190.555 96.132 190.963 96.432C191.383 96.732 191.653 97.146 191.773 97.674H191.827C191.983 97.134 192.283 96.72 192.727 96.432C193.183 96.132 193.855 95.982 194.743 95.982ZM202.951 95.982C204.103 95.982 205.033 96.102 205.741 96.342C206.449 96.582 206.965 97.026 207.289 97.674C207.625 98.31 207.793 99.234 207.793 100.446V104.838H205.183L205.093 104.01H205.039C204.811 104.31 204.457 104.55 203.977 104.73C203.497 104.91 202.873 105 202.105 105C200.029 105 198.991 104.028 198.991 102.084C198.991 101.256 199.261 100.608 199.801 100.14C200.353 99.66 201.217 99.42 202.393 99.42H205.057C204.973 98.916 204.757 98.58 204.409 98.412C204.061 98.232 203.467 98.142 202.627 98.142C202.099 98.142 201.577 98.184 201.061 98.268C200.557 98.34 200.113 98.424 199.729 98.52L199.675 98.484L199.693 96.396C199.933 96.324 200.239 96.258 200.611 96.198C200.983 96.126 201.373 96.072 201.781 96.036C202.201 96 202.591 95.982 202.951 95.982ZM202.843 102.876C203.587 102.876 204.145 102.786 204.517 102.606C204.889 102.414 205.081 102.114 205.093 101.706V101.256H203.059C202.531 101.256 202.159 101.334 201.943 101.49C201.739 101.634 201.637 101.832 201.637 102.084C201.637 102.384 201.745 102.594 201.961 102.714C202.177 102.822 202.471 102.876 202.843 102.876ZM212.556 104.838H209.676V96.072H212.412L212.556 97.674H212.61C212.778 97.134 213.078 96.72 213.51 96.432C213.942 96.132 214.542 95.982 215.31 95.982C216.354 95.982 217.122 96.276 217.614 96.864C218.118 97.452 218.37 98.472 218.37 99.924V104.838H215.49L215.472 100.482C215.472 99.81 215.37 99.33 215.166 99.042C214.962 98.754 214.578 98.61 214.014 98.61C213.486 98.61 213.114 98.742 212.898 99.006C212.682 99.258 212.568 99.696 212.556 100.32V104.838ZM225.818 104.838L225.71 103.56H225.638C225.434 104.04 225.14 104.4 224.756 104.64C224.384 104.88 223.838 105 223.118 105C221.954 105 221.102 104.664 220.562 103.992C220.022 103.308 219.74 102.282 219.716 100.914C219.704 99.69 219.83 98.718 220.094 97.998C220.358 97.278 220.772 96.762 221.336 96.45C221.9 96.138 222.62 95.982 223.496 95.982C223.952 95.982 224.366 96.024 224.738 96.108C225.11 96.18 225.41 96.282 225.638 96.414L225.674 96.396V92.724H228.554V104.838H225.818ZM224.054 102.552C224.534 102.552 224.924 102.402 225.224 102.102C225.524 101.802 225.674 101.304 225.674 100.608V98.718C225.23 98.538 224.708 98.448 224.108 98.448C223.544 98.448 223.136 98.586 222.884 98.862C222.644 99.126 222.524 99.666 222.524 100.482C222.524 101.178 222.62 101.7 222.812 102.048C223.016 102.384 223.43 102.552 224.054 102.552ZM230.087 100.518C230.087 98.91 230.429 97.752 231.113 97.044C231.797 96.336 232.955 95.982 234.587 95.982C235.679 95.982 236.555 96.138 237.215 96.45C237.875 96.762 238.349 97.254 238.637 97.926C238.937 98.586 239.087 99.45 239.087 100.518C239.087 101.574 238.937 102.432 238.637 103.092C238.349 103.752 237.875 104.238 237.215 104.55C236.555 104.85 235.679 105 234.587 105C232.955 105 231.797 104.652 231.113 103.956C230.429 103.248 230.087 102.102 230.087 100.518ZM234.587 102.534C235.283 102.534 235.751 102.384 235.991 102.084C236.243 101.772 236.369 101.232 236.369 100.464C236.369 99.732 236.243 99.21 235.991 98.898C235.751 98.574 235.283 98.412 234.587 98.412C233.915 98.412 233.447 98.574 233.183 98.898C232.931 99.21 232.805 99.732 232.805 100.464C232.805 101.232 232.931 101.772 233.183 102.084C233.447 102.384 233.915 102.534 234.587 102.534ZM251.482 104.838L251.374 103.56H251.302C251.098 104.04 250.804 104.4 250.42 104.64C250.048 104.88 249.502 105 248.782 105C247.618 105 246.766 104.664 246.226 103.992C245.686 103.308 245.404 102.282 245.38 100.914C245.368 99.69 245.494 98.718 245.758 97.998C246.022 97.278 246.436 96.762 247 96.45C247.564 96.138 248.284 95.982 249.16 95.982C249.616 95.982 250.03 96.024 250.402 96.108C250.774 96.18 251.074 96.282 251.302 96.414L251.338 96.396V92.724H254.218V104.838H251.482ZM249.718 102.552C250.198 102.552 250.588 102.402 250.888 102.102C251.188 101.802 251.338 101.304 251.338 100.608V98.718C250.894 98.538 250.372 98.448 249.772 98.448C249.208 98.448 248.8 98.586 248.548 98.862C248.308 99.126 248.188 99.666 248.188 100.482C248.188 101.178 248.284 101.7 248.476 102.048C248.68 102.384 249.094 102.552 249.718 102.552ZM259.711 95.982C260.863 95.982 261.793 96.102 262.501 96.342C263.209 96.582 263.725 97.026 264.049 97.674C264.385 98.31 264.553 99.234 264.553 100.446V104.838H261.943L261.853 104.01H261.799C261.571 104.31 261.217 104.55 260.737 104.73C260.257 104.91 259.633 105 258.865 105C256.789 105 255.751 104.028 255.751 102.084C255.751 101.256 256.021 100.608 256.561 100.14C257.113 99.66 257.977 99.42 259.153 99.42H261.817C261.733 98.916 261.517 98.58 261.169 98.412C260.821 98.232 260.227 98.142 259.387 98.142C258.859 98.142 258.337 98.184 257.821 98.268C257.317 98.34 256.873 98.424 256.489 98.52L256.435 98.484L256.453 96.396C256.693 96.324 256.999 96.258 257.371 96.198C257.743 96.126 258.133 96.072 258.541 96.036C258.961 96 259.351 95.982 259.711 95.982ZM259.603 102.876C260.347 102.876 260.905 102.786 261.277 102.606C261.649 102.414 261.841 102.114 261.853 101.706V101.256H259.819C259.291 101.256 258.919 101.334 258.703 101.49C258.499 101.634 258.397 101.832 258.397 102.084C258.397 102.384 258.505 102.594 258.721 102.714C258.937 102.822 259.231 102.876 259.603 102.876ZM271.907 104.838L271.799 103.56H271.727C271.523 104.04 271.229 104.4 270.845 104.64C270.473 104.88 269.927 105 269.207 105C268.043 105 267.191 104.664 266.651 103.992C266.111 103.308 265.829 102.282 265.805 100.914C265.793 99.69 265.919 98.718 266.183 97.998C266.447 97.278 266.861 96.762 267.425 96.45C267.989 96.138 268.709 95.982 269.585 95.982C270.041 95.982 270.455 96.024 270.827 96.108C271.199 96.18 271.499 96.282 271.727 96.414L271.763 96.396V92.724H274.643V104.838H271.907ZM270.143 102.552C270.623 102.552 271.013 102.402 271.313 102.102C271.613 101.802 271.763 101.304 271.763 100.608V98.718C271.319 98.538 270.797 98.448 270.197 98.448C269.633 98.448 269.225 98.586 268.973 98.862C268.733 99.126 268.613 99.666 268.613 100.482C268.613 101.178 268.709 101.7 268.901 102.048C269.105 102.384 269.519 102.552 270.143 102.552ZM276.177 100.518C276.177 98.91 276.519 97.752 277.203 97.044C277.887 96.336 279.045 95.982 280.677 95.982C281.769 95.982 282.645 96.138 283.305 96.45C283.965 96.762 284.439 97.254 284.727 97.926C285.027 98.586 285.177 99.45 285.177 100.518C285.177 101.574 285.027 102.432 284.727 103.092C284.439 103.752 283.965 104.238 283.305 104.55C282.645 104.85 281.769 105 280.677 105C279.045 105 277.887 104.652 277.203 103.956C276.519 103.248 276.177 102.102 276.177 100.518ZM280.677 102.534C281.373 102.534 281.841 102.384 282.081 102.084C282.333 101.772 282.459 101.232 282.459 100.464C282.459 99.732 282.333 99.21 282.081 98.898C281.841 98.574 281.373 98.412 280.677 98.412C280.005 98.412 279.537 98.574 279.273 98.898C279.021 99.21 278.895 99.732 278.895 100.464C278.895 101.232 279.021 101.772 279.273 102.084C279.537 102.384 280.005 102.534 280.677 102.534ZM286.307 102.354C287.243 102.618 288.281 102.75 289.421 102.75C289.973 102.75 290.387 102.732 290.663 102.696C290.939 102.66 291.125 102.6 291.221 102.516C291.317 102.432 291.365 102.318 291.365 102.174C291.365 101.97 291.287 101.844 291.131 101.796C290.987 101.748 290.693 101.682 290.249 101.598L288.827 101.328C287.915 101.148 287.255 100.866 286.847 100.482C286.451 100.086 286.253 99.498 286.253 98.718C286.253 97.662 286.565 96.942 287.189 96.558C287.825 96.174 288.833 95.982 290.213 95.982C291.041 95.982 291.767 96.03 292.391 96.126C293.027 96.21 293.555 96.318 293.975 96.45L293.939 98.628L293.885 98.682C292.913 98.37 291.851 98.214 290.699 98.214C290.135 98.214 289.739 98.256 289.511 98.34C289.295 98.412 289.187 98.562 289.187 98.79C289.187 98.91 289.217 99.006 289.277 99.078C289.349 99.15 289.505 99.222 289.745 99.294C289.985 99.354 290.363 99.432 290.879 99.528L292.193 99.78C292.925 99.936 293.465 100.194 293.813 100.554C294.161 100.914 294.335 101.484 294.335 102.264C294.335 102.948 294.209 103.494 293.957 103.902C293.705 104.298 293.279 104.58 292.679 104.748C292.091 104.916 291.275 105 290.231 105C289.439 105 288.707 104.964 288.035 104.892C287.375 104.808 286.781 104.712 286.253 104.604V102.39L286.307 102.354ZM308.98 104.55C308.644 104.67 308.176 104.778 307.576 104.874C306.988 104.958 306.286 105 305.47 105C304.438 105 303.556 104.868 302.824 104.604C302.104 104.328 301.558 103.866 301.186 103.218C300.814 102.558 300.628 101.646 300.628 100.482C300.628 98.898 300.988 97.752 301.708 97.044C302.44 96.336 303.568 95.982 305.092 95.982C306.184 95.982 307.042 96.138 307.666 96.45C308.302 96.762 308.752 97.206 309.016 97.782C309.292 98.346 309.43 99.018 309.43 99.798C309.43 100.026 309.418 100.272 309.394 100.536C309.382 100.8 309.352 101.058 309.304 101.31L309.232 101.382H303.31C303.394 101.91 303.64 102.258 304.048 102.426C304.468 102.594 305.146 102.678 306.082 102.678C306.706 102.678 307.222 102.666 307.63 102.642C308.05 102.606 308.476 102.558 308.908 102.498L308.98 102.552V104.55ZM306.928 99.492C306.928 99.204 306.88 98.958 306.784 98.754C306.7 98.538 306.526 98.376 306.262 98.268C305.998 98.148 305.608 98.088 305.092 98.088C304.336 98.088 303.838 98.22 303.598 98.484C303.37 98.736 303.256 99.072 303.256 99.492H306.928ZM321.851 95.982C322.739 95.982 323.441 96.276 323.957 96.864C324.485 97.452 324.749 98.472 324.749 99.924V104.838H321.869L321.851 100.284C321.851 99.696 321.761 99.27 321.581 99.006C321.413 98.742 321.077 98.61 320.573 98.61C320.069 98.61 319.727 98.742 319.547 99.006C319.379 99.27 319.295 99.696 319.295 100.284V104.838H316.415L316.397 100.284C316.397 99.696 316.307 99.27 316.127 99.006C315.959 98.742 315.623 98.61 315.119 98.61C314.615 98.61 314.273 98.742 314.093 99.006C313.925 99.27 313.841 99.696 313.841 100.284V104.838H310.961V96.072H313.697L313.841 97.674H313.895C314.051 97.146 314.321 96.732 314.705 96.432C315.101 96.132 315.659 95.982 316.379 95.982C317.099 95.982 317.663 96.132 318.071 96.432C318.491 96.732 318.761 97.146 318.881 97.674H318.935C319.091 97.134 319.391 96.72 319.835 96.432C320.291 96.132 320.963 95.982 321.851 95.982ZM337.597 104.838L337.489 103.56H337.417C337.213 104.04 336.919 104.4 336.535 104.64C336.163 104.88 335.617 105 334.897 105C333.733 105 332.881 104.664 332.341 103.992C331.801 103.308 331.519 102.282 331.495 100.914C331.483 99.69 331.609 98.718 331.873 97.998C332.137 97.278 332.551 96.762 333.115 96.45C333.679 96.138 334.399 95.982 335.275 95.982C335.731 95.982 336.145 96.024 336.517 96.108C336.889 96.18 337.189 96.282 337.417 96.414L337.453 96.396V92.724H340.333V104.838H337.597ZM335.833 102.552C336.313 102.552 336.703 102.402 337.003 102.102C337.303 101.802 337.453 101.304 337.453 100.608V98.718C337.009 98.538 336.487 98.448 335.887 98.448C335.323 98.448 334.915 98.586 334.663 98.862C334.423 99.126 334.303 99.666 334.303 100.482C334.303 101.178 334.399 101.7 334.591 102.048C334.795 102.384 335.209 102.552 335.833 102.552ZM350.218 104.55C349.882 104.67 349.414 104.778 348.814 104.874C348.226 104.958 347.524 105 346.708 105C345.676 105 344.794 104.868 344.062 104.604C343.342 104.328 342.796 103.866 342.424 103.218C342.052 102.558 341.866 101.646 341.866 100.482C341.866 98.898 342.226 97.752 342.946 97.044C343.678 96.336 344.806 95.982 346.33 95.982C347.422 95.982 348.28 96.138 348.904 96.45C349.54 96.762 349.99 97.206 350.254 97.782C350.53 98.346 350.668 99.018 350.668 99.798C350.668 100.026 350.656 100.272 350.632 100.536C350.62 100.8 350.59 101.058 350.542 101.31L350.47 101.382H344.548C344.632 101.91 344.878 102.258 345.286 102.426C345.706 102.594 346.384 102.678 347.32 102.678C347.944 102.678 348.46 102.666 348.868 102.642C349.288 102.606 349.714 102.558 350.146 102.498L350.218 102.552V104.55ZM348.166 99.492C348.166 99.204 348.118 98.958 348.022 98.754C347.938 98.538 347.764 98.376 347.5 98.268C347.236 98.148 346.846 98.088 346.33 98.088C345.574 98.088 345.076 98.22 344.836 98.484C344.608 98.736 344.494 99.072 344.494 99.492H348.166ZM359.021 102.3V104.64C358.721 104.76 358.277 104.85 357.689 104.91C357.101 104.97 356.477 105 355.817 105C354.869 105 354.077 104.868 353.441 104.604C352.817 104.34 352.349 103.884 352.037 103.236C351.737 102.588 351.581 101.688 351.569 100.536C351.569 99.348 351.731 98.424 352.055 97.764C352.391 97.104 352.877 96.642 353.513 96.378C354.149 96.114 354.911 95.982 355.799 95.982C356.327 95.982 356.885 96.018 357.473 96.09C358.061 96.162 358.541 96.258 358.913 96.378L358.931 98.79L358.877 98.826C358.517 98.754 358.133 98.7 357.725 98.664C357.317 98.628 356.915 98.61 356.519 98.61C355.715 98.61 355.157 98.76 354.845 99.06C354.533 99.36 354.377 99.864 354.377 100.572C354.377 101.112 354.443 101.514 354.575 101.778C354.707 102.042 354.929 102.216 355.241 102.3C355.553 102.384 355.979 102.426 356.519 102.426C356.939 102.426 357.341 102.408 357.725 102.372C358.109 102.336 358.517 102.294 358.949 102.246L359.021 102.3ZM363.355 92.814C363.391 93.246 363.409 93.606 363.409 93.894C363.409 94.062 363.403 94.236 363.391 94.416C363.391 94.584 363.379 94.776 363.355 94.992C363.103 95.04 362.857 95.076 362.617 95.1C362.377 95.124 362.137 95.136 361.897 95.136C361.669 95.136 361.435 95.124 361.195 95.1C360.967 95.076 360.733 95.04 360.493 94.992C360.469 94.788 360.451 94.602 360.439 94.434C360.427 94.254 360.421 94.08 360.421 93.912C360.421 93.756 360.427 93.588 360.439 93.408C360.451 93.228 360.469 93.03 360.493 92.814C360.733 92.754 360.973 92.718 361.213 92.706C361.465 92.682 361.711 92.67 361.951 92.67C362.179 92.67 362.407 92.682 362.635 92.706C362.875 92.718 363.115 92.754 363.355 92.814ZM363.355 104.838H360.475V96.072H363.355V104.838ZM364.952 102.354C365.888 102.618 366.926 102.75 368.066 102.75C368.618 102.75 369.032 102.732 369.308 102.696C369.584 102.66 369.77 102.6 369.866 102.516C369.962 102.432 370.01 102.318 370.01 102.174C370.01 101.97 369.932 101.844 369.776 101.796C369.632 101.748 369.338 101.682 368.894 101.598L367.472 101.328C366.56 101.148 365.9 100.866 365.492 100.482C365.096 100.086 364.898 99.498 364.898 98.718C364.898 97.662 365.21 96.942 365.834 96.558C366.47 96.174 367.478 95.982 368.858 95.982C369.686 95.982 370.412 96.03 371.036 96.126C371.672 96.21 372.2 96.318 372.62 96.45L372.584 98.628L372.53 98.682C371.558 98.37 370.496 98.214 369.344 98.214C368.78 98.214 368.384 98.256 368.156 98.34C367.94 98.412 367.832 98.562 367.832 98.79C367.832 98.91 367.862 99.006 367.922 99.078C367.994 99.15 368.15 99.222 368.39 99.294C368.63 99.354 369.008 99.432 369.524 99.528L370.838 99.78C371.57 99.936 372.11 100.194 372.458 100.554C372.806 100.914 372.98 101.484 372.98 102.264C372.98 102.948 372.854 103.494 372.602 103.902C372.35 104.298 371.924 104.58 371.324 104.748C370.736 104.916 369.92 105 368.876 105C368.084 105 367.352 104.964 366.68 104.892C366.02 104.808 365.426 104.712 364.898 104.604V102.39L364.952 102.354ZM373.876 100.518C373.876 98.91 374.218 97.752 374.902 97.044C375.586 96.336 376.744 95.982 378.376 95.982C379.468 95.982 380.344 96.138 381.004 96.45C381.664 96.762 382.138 97.254 382.426 97.926C382.726 98.586 382.876 99.45 382.876 100.518C382.876 101.574 382.726 102.432 382.426 103.092C382.138 103.752 381.664 104.238 381.004 104.55C380.344 104.85 379.468 105 378.376 105C376.744 105 375.586 104.652 374.902 103.956C374.218 103.248 373.876 102.102 373.876 100.518ZM378.376 102.534C379.072 102.534 379.54 102.384 379.78 102.084C380.032 101.772 380.158 101.232 380.158 100.464C380.158 99.732 380.032 99.21 379.78 98.898C379.54 98.574 379.072 98.412 378.376 98.412C377.704 98.412 377.236 98.574 376.972 98.898C376.72 99.21 376.594 99.732 376.594 100.464C376.594 101.232 376.72 101.772 376.972 102.084C377.236 102.384 377.704 102.534 378.376 102.534ZM380.068 95.244C379.78 95.244 379.45 95.172 379.078 95.028C378.718 94.884 378.364 94.746 378.016 94.614C377.68 94.47 377.38 94.398 377.116 94.398C376.792 94.398 376.63 94.56 376.63 94.884C376.63 94.908 376.63 94.938 376.63 94.974C376.642 95.01 376.648 95.046 376.648 95.082H375.118C375.118 95.082 375.106 94.992 375.082 94.812C375.07 94.62 375.064 94.446 375.064 94.29C375.064 93.762 375.208 93.378 375.496 93.138C375.796 92.898 376.186 92.778 376.666 92.778C376.966 92.778 377.296 92.85 377.656 92.994C378.016 93.126 378.37 93.264 378.718 93.408C379.066 93.552 379.372 93.624 379.636 93.624C379.768 93.624 379.876 93.588 379.96 93.516C380.056 93.444 380.104 93.318 380.104 93.138C380.104 93.114 380.104 93.084 380.104 93.048C380.104 93.012 380.098 92.976 380.086 92.94H381.634C381.634 92.94 381.64 93.03 381.652 93.21C381.676 93.39 381.688 93.564 381.688 93.732C381.688 94.26 381.538 94.644 381.238 94.884C380.95 95.124 380.56 95.244 380.068 95.244ZM392.124 104.55C391.788 104.67 391.32 104.778 390.72 104.874C390.132 104.958 389.43 105 388.614 105C387.582 105 386.7 104.868 385.968 104.604C385.248 104.328 384.702 103.866 384.33 103.218C383.958 102.558 383.772 101.646 383.772 100.482C383.772 98.898 384.132 97.752 384.852 97.044C385.584 96.336 386.712 95.982 388.236 95.982C389.328 95.982 390.186 96.138 390.81 96.45C391.446 96.762 391.896 97.206 392.16 97.782C392.436 98.346 392.574 99.018 392.574 99.798C392.574 100.026 392.562 100.272 392.538 100.536C392.526 100.8 392.496 101.058 392.448 101.31L392.376 101.382H386.454C386.538 101.91 386.784 102.258 387.192 102.426C387.612 102.594 388.29 102.678 389.226 102.678C389.85 102.678 390.366 102.666 390.774 102.642C391.194 102.606 391.62 102.558 392.052 102.498L392.124 102.552V104.55ZM390.072 99.492C390.072 99.204 390.024 98.958 389.928 98.754C389.844 98.538 389.67 98.376 389.406 98.268C389.142 98.148 388.752 98.088 388.236 98.088C387.48 98.088 386.982 98.22 386.742 98.484C386.514 98.736 386.4 99.072 386.4 99.492H390.072ZM393.709 102.354C394.645 102.618 395.683 102.75 396.823 102.75C397.375 102.75 397.789 102.732 398.065 102.696C398.341 102.66 398.527 102.6 398.623 102.516C398.719 102.432 398.767 102.318 398.767 102.174C398.767 101.97 398.689 101.844 398.533 101.796C398.389 101.748 398.095 101.682 397.651 101.598L396.229 101.328C395.317 101.148 394.657 100.866 394.249 100.482C393.853 100.086 393.655 99.498 393.655 98.718C393.655 97.662 393.967 96.942 394.591 96.558C395.227 96.174 396.235 95.982 397.615 95.982C398.443 95.982 399.169 96.03 399.793 96.126C400.429 96.21 400.957 96.318 401.377 96.45L401.341 98.628L401.287 98.682C400.315 98.37 399.253 98.214 398.101 98.214C397.537 98.214 397.141 98.256 396.913 98.34C396.697 98.412 396.589 98.562 396.589 98.79C396.589 98.91 396.619 99.006 396.679 99.078C396.751 99.15 396.907 99.222 397.147 99.294C397.387 99.354 397.765 99.432 398.281 99.528L399.595 99.78C400.327 99.936 400.867 100.194 401.215 100.554C401.563 100.914 401.737 101.484 401.737 102.264C401.737 102.948 401.611 103.494 401.359 103.902C401.107 104.298 400.681 104.58 400.081 104.748C399.493 104.916 398.677 105 397.633 105C396.841 105 396.109 104.964 395.437 104.892C394.777 104.808 394.183 104.712 393.655 104.604V102.39L393.709 102.354Z" fill="white"/>
<path d="M117.305 79.4922C117.305 80.7969 118.605 81.4492 121.207 81.4492C122.965 81.4492 125.172 80.7852 127.828 79.457L129.023 78.8242C130.836 77.9023 131.859 77.7031 132.094 78.2266C132.156 78.3672 132.188 78.5312 132.188 78.7188C132.188 78.8984 132.109 79.0859 131.953 79.2812C131.805 79.4688 131.602 79.6797 131.344 79.9141C131.086 80.1406 130.785 80.3828 130.441 80.6406C130.098 80.8906 129.734 81.1406 129.352 81.3906L128.203 82.1055C127.812 82.3398 127.391 82.5703 126.938 82.7969L125.227 83.6406C122.547 84.8906 120.02 85.5156 117.645 85.5156C115.566 85.5156 113.969 85.1055 112.852 84.2852C111.852 83.5586 111.352 82.6211 111.352 81.4727C111.352 79.8867 112.066 78.2891 113.496 76.6797C114.73 75.2969 116.422 73.9844 118.57 72.7422C120.445 71.6562 122.445 70.7656 124.57 70.0703C126.578 69.4062 128.207 69.0742 129.457 69.0742C129.723 69.0742 129.945 69.1602 130.125 69.332C130.453 69.6367 130.617 69.9375 130.617 70.2344C130.617 71.3906 130.137 72.3242 129.176 73.0352C128.355 73.6367 127.398 73.9375 126.305 73.9375C125.211 73.9375 124.391 73.8281 123.844 73.6094C121.805 74.3984 120.148 75.457 118.875 76.7852C118.344 77.3398 117.949 77.8594 117.691 78.3438C117.434 78.8281 117.305 79.2109 117.305 79.4922ZM142.641 77.7812C142.641 78.2031 143 78.4141 143.719 78.4141C144.25 78.4141 144.945 78.1562 145.805 77.6406L146.742 77.125C147.031 76.9609 147.281 76.8789 147.492 76.8789C147.711 76.8789 147.883 76.9453 148.008 77.0781C148.133 77.2109 148.195 77.3945 148.195 77.6289C148.195 77.8633 148.117 78.1367 147.961 78.4492C147.805 78.7539 147.59 79.0781 147.316 79.4219C147.043 79.7578 146.723 80.0938 146.355 80.4297C145.988 80.7578 145.594 81.0547 145.172 81.3203C144.234 81.9062 143.363 82.1992 142.559 82.1992C141.707 82.1992 141.027 82.0547 140.52 81.7656C140.363 81.6719 140.211 81.5742 140.062 81.4727C139.227 82.4258 138.016 83.3008 136.43 84.0977C134.742 84.9414 133.27 85.3633 132.012 85.3633C130.691 85.3633 129.648 84.8438 128.883 83.8047C128.266 82.9609 127.957 82.1055 127.957 81.2383C127.957 79.9883 128.625 78.7969 129.961 77.6641C130.945 76.8359 131.895 76.207 132.809 75.7773C133.73 75.3477 134.562 75.0156 135.305 74.7812C136.875 74.2891 138.289 74.043 139.547 74.043C140.109 74.043 140.609 74.1523 141.047 74.3711C141.492 74.582 141.82 74.7969 142.031 75.0156C142.531 75.5078 142.781 76.1367 142.781 76.9023C142.781 77.1289 142.758 77.3047 142.711 77.4297C142.664 77.5547 142.641 77.6719 142.641 77.7812ZM133.055 79.9961L133.043 80.0312V80.043C133.043 80.3789 133.117 80.5977 133.266 80.6992C133.625 80.918 134.004 80.9766 134.402 80.875C134.801 80.7656 135.18 80.6328 135.539 80.4766C136.43 80.0938 137.234 79.6094 137.953 79.0234C137.828 78.7734 137.766 78.5156 137.766 78.25C137.766 77.6875 138.012 77.125 138.504 76.5625C137.879 76.5625 137.035 76.8555 135.973 77.4414C134.801 78.0898 133.922 78.7578 133.336 79.4453C133.148 79.6797 133.055 79.8633 133.055 79.9961ZM159.199 78.707C159.199 79.418 159.406 79.7734 159.82 79.7734C160.836 79.7734 162.156 79.0859 163.781 77.7109L164.098 77.4414C164.73 77.0195 165.242 76.8086 165.633 76.8086C166.031 76.8086 166.281 76.8672 166.383 76.9844C166.492 77.1016 166.547 77.2891 166.547 77.5469C166.547 78.125 166.254 78.7383 165.668 79.3867C164.793 80.4492 163.594 81.457 162.07 82.4102C160.305 83.5195 158.723 84.0742 157.324 84.0742C156.348 84.0742 155.734 83.5312 155.484 82.4453C155.414 82.1641 155.363 81.8945 155.332 81.6367C155.254 81.0117 155.172 80.6641 155.086 80.5938C155 80.5234 154.828 80.5312 154.57 80.6172C154.32 80.6953 154.02 80.832 153.668 81.0273C153.324 81.2148 152.941 81.4453 152.52 81.7188C150.285 83.2031 149 84.0508 148.664 84.2617C147.859 84.7617 147.316 85.0117 147.035 85.0117C146.754 85.0117 146.477 84.9531 146.203 84.8359C145.938 84.7188 145.703 84.5703 145.5 84.3906C145.078 83.9922 144.867 83.5859 144.867 83.1719C144.867 80.8047 145.383 78.7344 146.414 76.9609C147.102 75.7656 147.945 74.9375 148.945 74.4766C149.453 74.2344 150 74.1133 150.586 74.1133C151.656 74.1133 152.191 74.4648 152.191 75.168C152.191 75.5977 151.938 76.3008 151.43 77.2773L151.078 77.9688C150.828 78.4453 150.707 78.7148 150.715 78.7773C150.762 79.0117 150.867 79.1289 151.031 79.1289C151.211 79.1289 151.477 78.9961 151.828 78.7305L153.984 77.125L155.062 76.375C156.305 75.5625 157.219 75.1562 157.805 75.1562C158.117 75.1562 158.402 75.2812 158.66 75.5312C159.137 75.9844 159.375 76.3789 159.375 76.7148C159.375 76.8242 159.363 76.957 159.34 77.1133C159.324 77.2695 159.305 77.4375 159.281 77.6172L159.234 78.168C159.211 78.3555 159.199 78.5352 159.199 78.707ZM177.059 76.9727C177.824 76.9727 178.207 77.2383 178.207 77.7695C178.207 78.2773 177.848 78.9336 177.129 79.7383L176.555 80.3359C175.859 81.0469 175.047 81.7461 174.117 82.4336C173.195 83.1211 172.383 83.6641 171.68 84.0625C170.047 84.9688 168.566 85.4219 167.238 85.4219C165.988 85.4219 164.969 85.0469 164.18 84.2969C163.5 83.6484 163.16 82.9648 163.16 82.2461C163.16 81.5273 163.23 80.8125 163.371 80.1016C163.512 79.3906 163.695 78.6953 163.922 78.0156C164.375 76.6328 164.871 75.457 165.41 74.4883C165.551 74.2227 165.621 74.0508 165.621 73.9727H164.109C163.539 73.9727 163.098 73.8398 162.785 73.5742C162.473 73.3086 162.316 73.0078 162.316 72.6719C162.316 72.3359 162.379 72.0898 162.504 71.9336C162.629 71.7773 162.785 71.6641 162.973 71.5938C163.238 71.4844 163.629 71.4297 164.145 71.4297L167.016 71.4414C167.078 71.418 167.203 71.25 167.391 70.9375L168.105 69.707C168.41 69.1602 168.715 68.7578 169.02 68.5C169.332 68.2422 169.695 68.1133 170.109 68.1133C170.531 68.1133 170.883 68.1523 171.164 68.2305C171.453 68.3086 171.695 68.4062 171.891 68.5234C172.273 68.7734 172.465 69.0469 172.465 69.3438C172.465 69.4688 172.422 69.6367 172.336 69.8477L171.68 71.4414L177.246 71.4297C177.73 71.4297 177.973 71.6797 177.973 72.1797C177.973 73.3672 176.914 73.9609 174.797 73.9609L170.508 73.9727C170.414 74.0195 170.254 74.2461 170.027 74.6523L169.5 75.625C169.367 75.8672 169.273 76.0508 169.219 76.1758L168.961 76.75C168.438 77.9297 168.176 78.7812 168.176 79.3047C168.176 79.8281 168.312 80.2656 168.586 80.6172C168.867 80.9688 169.238 81.1445 169.699 81.1445C170.16 81.1445 170.609 81.0547 171.047 80.875C171.492 80.6953 171.926 80.4766 172.348 80.2188C173.113 79.7422 173.715 79.3008 174.152 78.8945C174.59 78.4883 174.953 78.1797 175.242 77.9688C175.242 77.9688 175.516 77.7773 176.062 77.3945C176.484 77.1133 176.816 76.9727 177.059 76.9727ZM175.43 81.1328C175.281 81.1328 175.137 81.0977 174.996 81.0273C174.848 80.957 174.711 80.8438 174.586 80.6875C174.312 80.3438 174.176 79.875 174.176 79.2812C174.176 78.6484 174.555 77.8594 175.312 76.9141C176.047 76 176.902 75.2109 177.879 74.5469C178.926 73.8281 179.824 73.4688 180.574 73.4688C181.238 73.4688 181.688 73.6562 181.922 74.0312L182.086 74.2891C182.211 74.4844 182.336 74.582 182.461 74.582C182.586 74.582 182.781 74.5703 183.047 74.5469L184.711 74.4297C184.969 74.4062 185.172 74.3945 185.32 74.3945C185.469 74.3945 185.637 74.4492 185.824 74.5586C186.02 74.6602 186.191 74.7969 186.34 74.9688C186.668 75.3594 186.832 75.7891 186.832 76.2578C186.832 76.7422 186.297 77.5039 185.227 78.543L184.453 79.3164C183.898 79.8867 183.621 80.2461 183.621 80.3945C183.621 80.543 183.691 80.6758 183.832 80.793C183.973 80.9023 184.125 80.957 184.289 80.957C184.453 80.957 184.637 80.9141 184.84 80.8281C185.051 80.7344 185.309 80.6016 185.613 80.4297C185.918 80.25 186.266 80.0352 186.656 79.7852C187.727 79.082 188.441 78.5977 188.801 78.332L189.773 77.6406C190.438 77.1719 190.91 76.9375 191.191 76.9375C191.473 76.9375 191.703 77 191.883 77.125C192.062 77.2422 192.152 77.4492 192.152 77.7461C192.152 78.043 192 78.4414 191.695 78.9414C191.391 79.4414 191.059 79.875 190.699 80.2422C190.348 80.6094 190.004 80.9492 189.668 81.2617C189.332 81.5742 188.934 81.9141 188.473 82.2812C188.02 82.6406 187.516 83.0078 186.961 83.3828C186.406 83.75 185.82 84.082 185.203 84.3789C183.805 85.0586 182.52 85.3984 181.348 85.3984C179.637 85.3984 178.594 84.957 178.219 84.0742C178.102 83.8086 178.043 83.5117 178.043 83.1836C178.043 82.8555 178.105 82.5039 178.23 82.1289C178.355 81.7461 178.52 81.3672 178.723 80.9922C179.129 80.25 179.609 79.5938 180.164 79.0234C180.633 78.5312 180.867 78.2383 180.867 78.1445C180.867 77.9961 180.781 77.9023 180.609 77.8633C180.445 77.8242 180.199 77.8047 179.871 77.8047C179.73 77.8047 179.43 78.0078 178.969 78.4141L177.82 79.4688C176.602 80.5781 175.805 81.1328 175.43 81.1328ZM202.43 77.7812C202.43 78.2031 202.789 78.4141 203.508 78.4141C204.039 78.4141 204.734 78.1562 205.594 77.6406L206.531 77.125C206.82 76.9609 207.07 76.8789 207.281 76.8789C207.5 76.8789 207.672 76.9453 207.797 77.0781C207.922 77.2109 207.984 77.3945 207.984 77.6289C207.984 77.8633 207.906 78.1367 207.75 78.4492C207.594 78.7539 207.379 79.0781 207.105 79.4219C206.832 79.7578 206.512 80.0938 206.145 80.4297C205.777 80.7578 205.383 81.0547 204.961 81.3203C204.023 81.9062 203.152 82.1992 202.348 82.1992C201.496 82.1992 200.816 82.0547 200.309 81.7656C200.152 81.6719 200 81.5742 199.852 81.4727C199.016 82.4258 197.805 83.3008 196.219 84.0977C194.531 84.9414 193.059 85.3633 191.801 85.3633C190.48 85.3633 189.438 84.8438 188.672 83.8047C188.055 82.9609 187.746 82.1055 187.746 81.2383C187.746 79.9883 188.414 78.7969 189.75 77.6641C190.734 76.8359 191.684 76.207 192.598 75.7773C193.52 75.3477 194.352 75.0156 195.094 74.7812C196.664 74.2891 198.078 74.043 199.336 74.043C199.898 74.043 200.398 74.1523 200.836 74.3711C201.281 74.582 201.609 74.7969 201.82 75.0156C202.32 75.5078 202.57 76.1367 202.57 76.9023C202.57 77.1289 202.547 77.3047 202.5 77.4297C202.453 77.5547 202.43 77.6719 202.43 77.7812ZM192.844 79.9961L192.832 80.0312V80.043C192.832 80.3789 192.906 80.5977 193.055 80.6992C193.414 80.918 193.793 80.9766 194.191 80.875C194.59 80.7656 194.969 80.6328 195.328 80.4766C196.219 80.0938 197.023 79.6094 197.742 79.0234C197.617 78.7734 197.555 78.5156 197.555 78.25C197.555 77.6875 197.801 77.125 198.293 76.5625C197.668 76.5625 196.824 76.8555 195.762 77.4414C194.59 78.0898 193.711 78.7578 193.125 79.4453C192.938 79.6797 192.844 79.8633 192.844 79.9961ZM219.797 76.7266C220.297 76.7266 220.547 76.9336 220.547 77.3477C220.547 77.8555 220.242 78.4609 219.633 79.1641C218.625 80.3359 217.438 81.4766 216.07 82.5859C213.844 84.3672 211.855 85.2578 210.105 85.2578C208.848 85.2578 207.816 84.7109 207.012 83.6172C206.176 82.4766 205.758 80.9453 205.758 79.0234C205.758 76.5 206.988 73.7109 209.449 70.6562C211.012 68.7109 212.484 67.3906 213.867 66.6953C214.297 66.4766 214.625 66.3672 214.852 66.3672C215.086 66.3672 215.297 66.4062 215.484 66.4844C215.68 66.5547 215.859 66.6562 216.023 66.7891C216.406 67.1094 216.598 67.4961 216.598 67.9492C216.598 68.4023 216.473 68.9414 216.223 69.5664C215.973 70.1836 215.609 70.8438 215.133 71.5469C214.125 73.0391 212.762 74.4688 211.043 75.8359C210.598 76.6875 210.375 77.7109 210.375 78.9062C210.375 79.4453 210.547 79.9531 210.891 80.4297C211.242 80.9062 211.629 81.1445 212.051 81.1445C212.629 81.1445 213.734 80.5469 215.367 79.3516L217.453 77.7461C218.305 77.0664 219.086 76.7266 219.797 76.7266ZM231.773 76.7266C232.273 76.7266 232.523 76.9336 232.523 77.3477C232.523 77.8555 232.219 78.4609 231.609 79.1641C230.602 80.3359 229.414 81.4766 228.047 82.5859C225.82 84.3672 223.832 85.2578 222.082 85.2578C220.824 85.2578 219.793 84.7109 218.988 83.6172C218.152 82.4766 217.734 80.9453 217.734 79.0234C217.734 76.5 218.965 73.7109 221.426 70.6562C222.988 68.7109 224.461 67.3906 225.844 66.6953C226.273 66.4766 226.602 66.3672 226.828 66.3672C227.062 66.3672 227.273 66.4062 227.461 66.4844C227.656 66.5547 227.836 66.6562 228 66.7891C228.383 67.1094 228.574 67.4961 228.574 67.9492C228.574 68.4023 228.449 68.9414 228.199 69.5664C227.949 70.1836 227.586 70.8438 227.109 71.5469C226.102 73.0391 224.738 74.4688 223.02 75.8359C222.574 76.6875 222.352 77.7109 222.352 78.9062C222.352 79.4453 222.523 79.9531 222.867 80.4297C223.219 80.9062 223.605 81.1445 224.027 81.1445C224.605 81.1445 225.711 80.5469 227.344 79.3516L229.43 77.7461C230.281 77.0664 231.062 76.7266 231.773 76.7266ZM246.105 76.3867C246.48 76.3867 246.668 76.5977 246.668 77.0195C246.668 77.3008 246.57 77.6562 246.375 78.0859C246.188 78.5078 245.914 78.9062 245.555 79.2812C245.195 79.6484 244.781 80.0312 244.312 80.4297C243.852 80.8281 243.309 81.2461 242.684 81.6836C242.066 82.1211 241.383 82.5547 240.633 82.9844C239.883 83.4141 239.086 83.8008 238.242 84.1445C236.375 84.9102 234.566 85.293 232.816 85.293C231.48 85.293 230.312 84.9453 229.312 84.25C228.266 83.5234 227.742 82.6406 227.742 81.6016C227.742 79.9688 228.621 78.418 230.379 76.9492C231.895 75.6836 233.68 74.7031 235.734 74.0078C236.984 73.5859 238.043 73.375 238.91 73.375C239.613 73.375 240.207 73.5469 240.691 73.8906C241.207 74.2656 241.465 74.7695 241.465 75.4023C241.465 76.3945 240.68 77.4922 239.109 78.6953C238.859 78.8906 238.633 79.0547 238.43 79.1875L238.008 79.4688C237.227 80.0156 236.039 80.6289 234.445 81.3086C234.938 81.5664 235.395 81.6953 235.816 81.6953C236.246 81.6953 236.629 81.6445 236.965 81.543C237.309 81.4414 237.695 81.2969 238.125 81.1094C238.555 80.9219 239.012 80.6992 239.496 80.4414C239.988 80.1758 240.484 79.8867 240.984 79.5742C242.102 78.8789 243.07 78.168 243.891 77.4414C244.32 77.043 244.867 76.7266 245.531 76.4922C245.75 76.4219 245.941 76.3867 246.105 76.3867ZM233.18 79.6797L233.824 79.3516C234.035 79.2422 234.223 79.1406 234.387 79.0469C235.965 78.1406 236.863 77.582 237.082 77.3711C237.301 77.1602 237.41 77.0156 237.41 76.9375C237.41 76.8516 237.387 76.7539 237.34 76.6445C237.293 76.5352 237.23 76.4375 237.152 76.3516C236.965 76.1328 236.766 76.0234 236.555 76.0234C236.344 76.0234 236.109 76.0625 235.852 76.1406C235.602 76.2188 235.348 76.3281 235.09 76.4688C234.832 76.6016 234.582 76.7656 234.34 76.9609C234.105 77.1484 233.898 77.3516 233.719 77.5703C233.305 78.0625 233.098 78.4883 233.098 78.8477C233.098 79.207 233.125 79.4844 233.18 79.6797ZM243.211 81.1328C243.062 81.1328 242.918 81.0977 242.777 81.0273C242.629 80.957 242.492 80.8438 242.367 80.6875C242.094 80.3438 241.957 79.875 241.957 79.2812C241.957 78.6484 242.336 77.8594 243.094 76.9141C243.828 76 244.684 75.2109 245.66 74.5469C246.707 73.8281 247.605 73.4688 248.355 73.4688C249.02 73.4688 249.469 73.6562 249.703 74.0312L249.867 74.2891C249.992 74.4844 250.117 74.582 250.242 74.582C250.367 74.582 250.562 74.5703 250.828 74.5469L252.492 74.4297C252.75 74.4062 252.953 74.3945 253.102 74.3945C253.25 74.3945 253.418 74.4492 253.605 74.5586C253.801 74.6602 253.973 74.7969 254.121 74.9688C254.449 75.3594 254.613 75.7891 254.613 76.2578C254.613 76.7422 254.078 77.5039 253.008 78.543L252.234 79.3164C251.68 79.8867 251.402 80.2461 251.402 80.3945C251.402 80.543 251.473 80.6758 251.613 80.793C251.754 80.9023 251.906 80.957 252.07 80.957C252.234 80.957 252.418 80.9141 252.621 80.8281C252.832 80.7344 253.09 80.6016 253.395 80.4297C253.699 80.25 254.047 80.0352 254.438 79.7852C255.508 79.082 256.223 78.5977 256.582 78.332L257.555 77.6406C258.219 77.1719 258.691 76.9375 258.973 76.9375C259.254 76.9375 259.484 77 259.664 77.125C259.844 77.2422 259.934 77.4492 259.934 77.7461C259.934 78.043 259.781 78.4414 259.477 78.9414C259.172 79.4414 258.84 79.875 258.48 80.2422C258.129 80.6094 257.785 80.9492 257.449 81.2617C257.113 81.5742 256.715 81.9141 256.254 82.2812C255.801 82.6406 255.297 83.0078 254.742 83.3828C254.188 83.75 253.602 84.082 252.984 84.3789C251.586 85.0586 250.301 85.3984 249.129 85.3984C247.418 85.3984 246.375 84.957 246 84.0742C245.883 83.8086 245.824 83.5117 245.824 83.1836C245.824 82.8555 245.887 82.5039 246.012 82.1289C246.137 81.7461 246.301 81.3672 246.504 80.9922C246.91 80.25 247.391 79.5938 247.945 79.0234C248.414 78.5312 248.648 78.2383 248.648 78.1445C248.648 77.9961 248.562 77.9023 248.391 77.8633C248.227 77.8242 247.98 77.8047 247.652 77.8047C247.512 77.8047 247.211 78.0078 246.75 78.4141L245.602 79.4688C244.383 80.5781 243.586 81.1328 243.211 81.1328Z" fill="white"/>
<path d="M402 78H259" stroke="url(#paint0_linear_50_2)" stroke-width="3" stroke-linecap="round"/>
<path d="M46.1635 108.937C39.8961 108.473 33.5467 106.699 27.7987 103.804C22.459 101.117 18.3632 98.1117 14.1883 93.8218C10.9961 90.5419 8.62347 87.3547 6.28385 83.2088C2.84547 77.1132 0.748018 70.2131 0.118582 62.9172C-0.0395274 61.0784 -0.0395274 56.6495 0.118582 54.861C1.06123 44.2248 4.77881 35.0115 11.3333 27.0671C17.4296 19.6775 24.8697 14.5084 33.6568 11.5569C39.0355 9.75025 43.8058 8.99599 49.818 9.00002C55.7821 9.00505 60.7396 9.76435 65.9552 11.4703C68.7331 12.3796 72.6388 14.1218 75.2646 15.6242C82.6507 19.8507 89.1892 26.4457 93.5152 34.0337C100.687 46.6134 102.003 62.4751 96.9987 76.0206C94.9592 81.5401 92.3254 86.1795 88.6419 90.7403C87.43 92.2398 83.7615 95.9527 82.1904 97.2689C76.8067 101.78 71.0427 104.915 64.4711 106.906C61.402 107.837 58.9323 108.348 55.3718 108.793C53.9028 108.978 47.9547 109.07 46.1635 108.937ZM52.3698 104.099C58.8863 103.748 64.4831 102.29 70.105 99.4783C77.3871 95.8359 83.2942 90.6054 87.7372 83.8633C89.1882 81.662 89.6566 80.8473 90.7123 78.6832C92.6596 74.6934 94.0856 70.0691 94.7431 65.611C95.3435 61.5416 95.3435 56.0926 94.7441 51.991C93.3491 42.4595 88.6078 33.1767 81.678 26.4105C74.7172 19.6141 65.698 15.2728 56.0723 14.0835C48.9114 13.1993 41.6563 13.8811 35.3079 16.0351C26.0735 19.168 18.118 25.2252 12.5082 33.3972C8.67551 38.9792 6.03868 46.0213 5.14006 53.0705C3.85017 63.1982 5.95963 73.4567 11.0892 82.0003C14.2434 87.254 18.031 91.4754 22.7923 95.0433C30.7198 100.984 39.5629 103.993 49.6679 104.189C50.0802 104.197 51.297 104.157 52.3698 104.099ZM21.2502 80.2632C21.2522 76.0468 21.2612 75.8383 21.4564 75.4043C21.7215 74.8152 21.9917 74.5332 22.5711 74.2362L23.0425 73.9945H26.8791H30.7158L31.2381 74.2563C31.5253 74.4013 31.8766 74.6702 32.0167 74.8565C32.53 75.5342 32.556 75.7971 32.556 80.4052V84.669H26.9021H21.2482L21.2502 80.2632ZM35.6592 76.0337C35.6592 70.5595 35.6962 67.2655 35.7603 67.0339C35.9044 66.5103 36.2476 66.041 36.7439 65.6905L37.1762 65.3844L41.195 65.3552C45.7672 65.323 45.7752 65.324 46.4467 66.0913C46.6578 66.333 46.884 66.7086 46.948 66.9262C47.0351 67.2152 47.0661 69.6381 47.0661 75.9954V84.669H41.3621H35.6582L35.6592 76.0337ZM49.9681 73.9119C49.9681 61.7813 49.9281 62.4489 50.7096 61.6624C51.4091 60.9575 51.4401 60.9535 55.7221 60.9535C59.4276 60.9535 59.5347 60.9595 59.925 61.171C60.4494 61.455 60.8166 61.8548 61.0678 62.4137C61.2559 62.8326 61.2719 63.0693 61.2739 65.5435L61.2759 68.2202L60.7536 68.4639C58.7452 69.4004 57.1421 71.0328 56.1614 73.1375C55.1627 75.2835 55.0006 78.1203 55.7431 80.4878C56.1334 81.7345 57.3212 83.9469 57.8255 84.3689C57.9066 84.4363 57.9736 84.532 57.9736 84.5803C57.9736 84.6297 56.2004 84.669 53.9709 84.669H49.9681V73.9119ZM61.7693 82.2209C60.4794 81.8543 59.6158 80.9128 59.4166 79.655L59.3486 79.231H60.4123C61.449 79.231 61.4761 79.2371 61.4761 79.4576C61.4771 79.5825 61.5681 79.8342 61.6792 80.0175C62.1946 80.8684 63.8947 80.8674 64.5132 80.0155C64.6312 79.8523 64.7273 79.5291 64.7503 79.2099C64.8254 78.1897 64.1519 77.6258 62.852 77.6218L62.1765 77.6198V76.8262V76.0317L62.852 75.9612C64.0919 75.8323 64.6593 75.2915 64.5522 74.3389C64.3921 72.9099 62.3517 72.64 61.7262 73.9653L61.5261 74.3902L60.5504 74.3933C59.4407 74.3973 59.4477 74.4053 59.7339 73.5594C59.965 72.8787 60.6405 72.1708 61.396 71.8203C61.9594 71.5585 62.1335 71.5273 63.0271 71.5273C64.1929 71.5273 64.8264 71.7075 65.5129 72.2362C66.9088 73.3087 66.9348 75.5826 65.5599 76.4426L65.0726 76.7477L65.4368 76.8736C66.3234 77.1807 66.8248 78.0478 66.8128 79.2552C66.8058 79.8876 66.7537 80.1383 66.5326 80.5925C66.2274 81.2209 65.5169 81.8342 64.7723 82.1111C64.1829 82.3296 62.3837 82.3961 61.7693 82.2209ZM69.9399 82.1081C68.8792 81.66 68.1657 80.7536 67.8104 79.4052C67.5823 78.5412 67.5833 76.0418 67.8114 75.0106C68.3448 72.5977 69.7318 71.3853 71.8312 71.496C73.3943 71.5786 74.5331 72.4799 74.8313 73.8686L74.9014 74.1959L73.9177 74.1939L72.934 74.1919L72.7839 73.8676C72.5517 73.3651 72.0264 73.06 71.497 73.1184C70.9366 73.1808 70.5994 73.4356 70.2611 74.0529C70.009 74.5131 69.9069 74.8545 69.7268 75.8414L69.6557 76.2281L70.104 75.8837C70.6904 75.4335 71.3139 75.2643 72.1615 75.3258C73.3613 75.4114 74.2709 76.0216 74.8003 77.0921C75.0054 77.51 75.0354 77.7144 75.0354 78.7275C75.0354 79.7889 75.0124 79.9329 74.7583 80.4535C74.433 81.1202 73.7606 81.7808 73.1021 82.0799C72.7439 82.243 72.3866 82.3004 71.5831 82.3256C70.6454 82.3558 70.4683 82.3316 69.9399 82.1081ZM72.4306 80.3277C73.0951 79.7406 73.2612 78.4476 72.7739 77.654C72.3206 76.9159 71.2018 76.7014 70.4833 77.216C69.8018 77.7044 69.5787 78.8846 70.007 79.7376C70.3262 80.373 70.7675 80.6409 71.494 80.6409C72.0033 80.6409 72.1214 80.6016 72.4306 80.3277ZM78.8611 82.2501C77.6102 81.9319 76.8137 81.0749 76.3374 79.5331C76.0812 78.7033 76.0151 76.2069 76.2213 75.1133C76.4064 74.1334 76.8147 73.1919 77.293 72.6431C78.5779 71.1708 81.1777 71.0902 82.4286 72.4829C83.2441 73.3923 83.5824 74.4849 83.6594 76.4617C83.7755 79.4626 83.079 81.2632 81.5119 82.0094C81.0636 82.2229 80.7634 82.2873 80.091 82.3125C79.6216 82.3306 79.0692 82.3024 78.8611 82.2501ZM80.5923 80.3136C81.3288 79.8131 81.647 78.517 81.562 76.361C81.4859 74.4134 81.1417 73.5564 80.3291 73.2865C79.5486 73.0267 78.8721 73.4648 78.4668 74.492C78.2697 74.9924 78.2457 75.2382 78.2417 76.8142C78.2377 78.7738 78.3668 79.4546 78.8561 80.0397C79.3184 80.5925 80.0199 80.7033 80.5923 80.3136ZM84.9953 73.924C84.534 73.6823 84.2538 73.1748 84.2538 72.5796C84.2538 71.7397 84.8432 71.1758 85.7208 71.1748C86.7005 71.1748 87.2929 71.6975 87.2939 72.5645C87.2939 73.059 87.1278 73.4326 86.7516 73.787C86.3993 74.1173 85.4997 74.1888 84.9953 73.924ZM86.1371 73.066C86.4564 72.6078 86.2662 71.9804 85.8089 71.9804C85.4246 71.9804 85.2925 72.1516 85.2925 72.6501C85.2925 72.9512 85.3446 73.1083 85.4677 73.1808C85.7469 73.3449 85.97 73.3067 86.1371 73.066ZM23.1335 68.7287L21.9657 67.4831L31.9086 57.4098C37.7526 51.4895 41.9936 47.269 42.1967 47.1713C42.666 46.9478 43.2434 46.9639 43.6507 47.2136C43.8358 47.3274 45.537 48.9679 47.4323 50.8591L50.8777 54.2981L59.5787 45.542C64.3651 40.7254 68.2698 36.7587 68.2558 36.7265C68.2417 36.6932 67.7154 36.2179 67.0859 35.6681C66.4565 35.1192 65.8101 34.5543 65.649 34.4133L65.3568 34.1575L66.8938 33.6701C70.3112 32.5866 76.1472 30.7095 76.3163 30.64C76.4674 30.5786 76.4875 30.6058 76.4414 30.8051C75.773 33.7245 74.5251 38.7093 73.7526 41.5491L73.6345 41.9831L72.2375 40.5632L70.8405 39.1433L61.38 48.6537C56.1764 53.8852 51.7753 58.2375 51.5992 58.3252C51.231 58.5104 50.6085 58.5346 50.2003 58.3795C50.0451 58.3211 48.34 56.6887 46.4106 54.7512L42.9032 51.2297L33.6018 60.602L24.3003 69.9744L23.1335 68.7287ZM64.1999 59.4178C64.232 49.7674 64.1769 50.3999 65.0395 49.6365C65.731 49.0233 65.8811 49.0061 70.1401 49.0404L73.9507 49.0706L74.44 49.3757C74.7432 49.564 75.0455 49.8682 75.2326 50.1733L75.5358 50.6657L75.5628 59.309L75.5898 67.9523H69.8809H64.1729L64.1999 59.4178Z" fill="white"/>
<defs>
<linearGradient id="paint0_linear_50_2" x1="259" y1="78.5" x2="402" y2="78.5" gradientUnits="userSpaceOnUse">
  <stop offset="0" stop-color="#343a40"/>
  <stop offset="0.5" stop-color="white"/>
  <stop offset="1" stop-color="#343a40"/>
</linearGradient>

</defs>
</svg>